<svg xmlns="http://www.w3.org/2000/svg" viewBox="0 0 200 300" width="200" height="300">
  <!-- World -->
  <circle cx="100" cy="50" r="40" fill="black" />

  <!-- Atlas Body -->
  <path d="M100 90 C90 100, 80 120, 80 140 L80 200 C80 210, 90 210, 90 200 L90 140 C90 130, 95 125, 100 125 C105 125, 110 130, 110 140 L110 200 C110 210, 120 210, 120 200 L120 140 C120 120, 110 100, 100 90 Z" fill="black" />

  <!-- Arms -->
  <path d="M80 140 C60 120, 50 100, 60 80 C70 60, 90 60, 100 80 L100 90" fill="black" />
  <path d="M120 140 C140 120, 150 100, 140 80 C130 60, 110 60, 100 80 L100 90" fill="black" />
</svg>